<?xml version="1.0" encoding="utf-8"?>
<!-- Generator: Adobe Illustrator 25.3.1, SVG Export Plug-In . SVG Version: 6.00 Build 0)  -->
<svg version="1.1" id="Layer_1" xmlns="http://www.w3.org/2000/svg" xmlns:xlink="http://www.w3.org/1999/xlink" x="0px" y="0px"
	 viewBox="0 0 826.1 128.6" style="enable-background:new 0 0 826.1 128.6;" xml:space="preserve">
<style type="text/css">
	.st0{fill-rule:evenodd;clip-rule:evenodd;fill:#5F6368;}
	.st1{fill:#63666A;}
	.st2{fill:#34A853;}
	.st3{fill:#FBBC04;}
	.st4{fill:#4285F4;}
	.st5{fill:#1A73E8;}
	.st6{fill:#EA4335;}
</style>
<g>
	<path class="st0" d="M422.9,79.5l22.8-9.5c-1.3-3.2-5-5.4-9.5-5.4C430.5,64.6,422.6,69.7,422.9,79.5 M449.7,88.7l8.7,5.8
		c-2.8,4.2-9.6,11.3-21.2,11.3c-14.5,0-24.9-11.2-24.9-25.5c0-15.2,10.5-25.5,23.7-25.5c12.1,0.4,19.6,8.2,23,19.1L424.7,88
		c2.6,5.1,6.7,7.7,12.4,7.7C442.8,95.7,446.7,92.9,449.7,88.7 M394.3,104.2h11.2V29.4h-11.2V104.2z M376,80.4c0-9-6-15.6-13.6-15.6
		c-7.7,0-14.2,6.6-14.2,15.6c0,8.9,6.5,15.4,14.2,15.4C370,95.7,376,89.3,376,80.4z M385.9,56.3V102c0,18.8-11.1,26.6-24.2,26.6
		c-12.4,0-19.8-8.3-22.6-15.1l9.7-4c1.7,4.2,6,9.1,12.9,9.1c12.5-1.4,13.6-9.5,13.6-18.6h-0.4c-2.5,3.1-7.3,5.8-13.4,5.8
		c-12.7,0-24.4-11.1-24.4-25.4c0-14.4,11.7-25.6,24.4-25.6c6.1,0,10.9,2.7,13.4,5.7h0.4v-4.2C375.3,56.3,385.9,56.3,385.9,56.3
		L385.9,56.3z M263.7,80.3c0-9.2-6.6-15.4-14.1-15.4c-7.6,0-14.1,6.3-14.1,15.4c0,9.1,6.6,15.4,14.1,15.4
		C257.1,95.7,263.7,89.3,263.7,80.3 M274.7,80.3c0,14.7-11.3,25.5-25.1,25.5c-13.8,0-25.1-10.8-25.1-25.5
		c0-14.8,11.3-25.5,25.1-25.5C263.4,54.8,274.7,65.5,274.7,80.3 M320.1,80.3c0-9.2-6.6-15.4-14.1-15.4c-7.6,0-14.1,6.3-14.1,15.4
		c0,9.1,6.6,15.4,14.1,15.4C313.5,95.7,320.1,89.3,320.1,80.3 M331.1,80.3c0,14.7-11.3,25.5-25.1,25.5S280.8,95,280.8,80.3
		c0-14.8,11.3-25.5,25.1-25.5S331.1,65.5,331.1,80.3 M181.4,105.8c-21.8,0-40.2-17.8-40.2-39.6c0-21.8,18.4-39.6,40.2-39.6
		c12.1,0,20.7,4.7,27.1,10.9l-7.6,7.6c-4.6-4.3-10.9-7.7-19.5-7.7C165.4,37.3,153,50.2,153,66c0,15.9,12.5,28.6,28.4,28.6
		c10.3,0,16.2-4.2,20-7.9c3.1-3.1,5.1-7.5,5.9-13.6h-25.9V62.2h36.3c0.4,1.9,0.6,4.2,0.6,6.7c0,8.1-2.2,18.2-9.4,25.3
		c-6.9,7.3-15.8,11.2-27.5,11.2"/>
	<path class="st1" d="M485.2,103.7V37.1h8.6l23.1,40.5h0.3l23.1-40.5h8.6v66.6h-8.6l0.3-50.6h-0.3l-20.8,36.5h-5L493.8,53h-0.3
		c0.6,16.8,0.3,33.8,0.3,50.6H485.2z M575.8,104.8c-4.9,0-8.8-1.4-12.1-4.2c-3.3-2.8-4.9-6.5-4.9-11c0-5,2-8.8,5.8-11.6
		c3.8-2.8,8.6-4.2,14.2-4.2c5,0,9.2,0.9,12.3,2.8c-0.1-9.7-6.8-12.3-12-12.3c-4.9,0.2-9.2,2.3-10.9,6.6l-7.8-3.4
		c1-2.7,3.1-5.2,6.3-7.6c3.1-2.3,7.2-3.5,12.3-3.5c5.8,0,10.7,1.7,14.5,5.1c3.8,3.4,5.8,8.2,5.8,14.4v27.5h-8.1v-6.3
		C587.4,102,582.3,104.7,575.8,104.8L575.8,104.8z M591.1,83.7c-5-3.8-15.4-4.3-20.3-0.3c-3.8,3.7-4.2,8.7-0.2,11.6
		C580.2,101.2,591.5,91.5,591.1,83.7z M632.7,104.8c-3.5,0-6.6-0.7-9.3-2.2c-2.7-1.5-4.8-3.4-6.2-5.6h-0.5l0.3,6.3v20.1h-8.5V57.8
		h8.1v6.3h0.3c1.4-2.2,3.4-4.1,6.2-5.6c2.8-1.5,5.9-2.2,9.3-2.2c5.9,0,10.9,2.3,15.2,7s6.4,10.5,6.4,17.3s-2.1,12.7-6.4,17.3
		C643.6,102.5,638.5,104.8,632.7,104.8L632.7,104.8z M631.3,96.9c3.9,0,7.3-1.5,10.2-4.5c2.9-3,4.3-7,4.3-12s-1.4-8.9-4.3-12
		c-2.9-3-6.3-4.5-10.2-4.5c-4.1,0-7.4,1.5-10.2,4.4c-2.8,3-4.2,7-4.2,12s1.4,9.1,4.2,12C623.9,95.5,627.2,96.9,631.3,96.9z
		 M679.2,104.8c-5.1,0-9.3-1.3-12.5-3.7c-3.4-2.4-5.7-5.6-7.3-9.3l7.7-3.1c2.4,5.7,6.5,8.6,12.3,8.6c2.7,0,4.9-0.6,6.5-1.7
		c1.7-1.2,2.6-2.7,2.6-4.6c0-3-2.1-5-6.3-6l-9.2-2.2c-2.9-0.7-5.7-2.2-8.2-4.2c-2.6-2-3.9-4.9-3.9-8.4c0-4.1,1.7-7.3,5.3-9.8
		c3.6-2.6,7.8-3.7,12.7-3.7c4.1,0,7.7,0.9,10.8,2.8c3.1,1.9,5.5,4.4,6.7,7.9l-7.4,3c-1.6-4.1-5.1-6-10.5-6c-2.6,0-4.6,0.6-6.4,1.6
		c-1.7,1-2.6,2.4-2.6,4.3c0,2.6,2,4.4,6,5.3l9.1,2.1c4.3,1,7.4,2.7,9.5,5.1c2.1,2.4,3,5.1,3,8.1c0,4.1-1.6,7.6-5,10.2
		C688.8,103.4,684.5,104.8,679.2,104.8L679.2,104.8z"/>
</g>
<g>
	<path class="st2" d="M45,95.3c4,5,8,11.2,10.1,15c2.6,4.9,3.6,8.2,5.6,14.1c1.1,3.2,2.2,4.2,4.4,4.2c2.4,0,3.6-1.7,4.4-4.2
		c1.8-5.6,3.2-9.8,5.4-13.8c8.4-15.9,22.2-27.2,29.9-42.7c0,0,5.1-9.5,5.1-22.7c0-12.4-5-20.9-5-20.9L45,95.4L45,95.3z"/>
	<path class="st3" d="M24.7,66.2c4.8,11,14,20.6,20.3,29.1l33.3-39.5c0,0-4.7,6.2-13.2,6.2c-9.5,0-17.2-7.5-17.2-17.1
		c0-6.6,3.9-11.1,3.9-11.1C27.3,37.4,28.7,43.4,24.7,66.2L24.7,66.2z"/>
	<path class="st4" d="M78.7,2.1c11.1,3.6,20.5,11.1,26.2,22.1L78.3,55.9c0,0,3.9-4.6,3.9-11.1c0-9.7-8.2-17.1-17.1-17.1
		c-8.4,0-13.2,6.1-13.2,6.1C54,29.1,75.1,3.6,78.7,2.1L78.7,2.1z"/>
	<path class="st5" d="M30.8,16C37.4,8.1,49,0,65,0c7.7,0,13.6,2.1,13.6,2.1L51.9,33.8C50.1,32.8,32.5,19.1,30.8,16L30.8,16z"/>
	<path class="st6" d="M24.7,66.2c0,0-4.4-8.7-4.4-21.1c0-11.8,4.6-22.2,10.5-28.9l21.1,17.8L24.7,66.2L24.7,66.2z"/>
</g>
</svg>
