<svg xmlns="http://www.w3.org/2000/svg" width="126" height="87.136" viewBox="0 0 126 87.136">
  <g id="Group_21" data-name="Group 21" transform="translate(0.04 0)">
    <path id="Path_7" data-name="Path 7" d="M64.29,2166.563c.272-2.8.776-4.48,3.327-5.733a115.819,115.819,0,0,0,13.629-8.211c2.418-1.664,5.073-3.843,4.064-7.208-.926-3.1-4.164-3.515-6.97-4.07a36.066,36.066,0,0,1-5.362-1.27c6.332-.36,12.625-.682,18.752,1.231,5.495,1.713,6.338,4.99,2.262,9.043-5.029,5.029-11.389,7.99-17.682,11.006C72.524,2163.2,68.6,2164.71,64.29,2166.563Z" transform="translate(29.415 -2120.264)" fill="#124f98"/>
    <path id="Path_8" data-name="Path 8" d="M29.328,2206.608c1.48-2.511,4.181-2.279,6.51-2.889-3.515,10.025-8.068,19.518-14.688,27.907a12.671,12.671,0,0,1-3.571,3.4c-1.231.676-3.127,1.143-4.275.649-.959-.416-1.808-2.384-1.747-3.615.194-3.843.826-7.668,1.325-11.5a6.049,6.049,0,0,1,1.109-2.861v15.392l.826.4c1.181-1.28,2.695-2.39,3.482-3.881,3.449-6.571,6.7-13.241,9.981-19.895a25.355,25.355,0,0,0,1.048-3.111Z" transform="translate(52.91 -2148.744)" fill="#124f98"/>
    <path id="Path_9" data-name="Path 9" d="M-78.842,2171.68c1.553,3.083.466,4.391-2.29,5.8a112.793,112.793,0,0,0-13.973,8.667c-3.465,2.49-3.843,4.364-2.928,8.317a6.315,6.315,0,0,1-6.144-2.811c-1.325-1.99-.261-3.881,1.17-5.473,4.391-4.907,10.18-7.763,15.919-10.629C-84.386,2174.18-81.614,2172.966-78.842,2171.68Z" transform="translate(104.74 -2134.469)" fill="#124f98"/>
    <path id="Path_10" data-name="Path 10" d="M-31.93,2222.955c3.116-1.663,5.883-1.846,8.173,1.5.8,1.165,2.14,1.958,3.776,3.4-.4-2.833-.7-4.99-1.048-7.5l4.086-.51c.6,2.772,1.375,5.506,1.724,8.317.177,1.419.05,3.72-.782,4.22a6.167,6.167,0,0,1-4.829.149C-25.559,2230.629-28.847,2226.864-31.93,2222.955Z" transform="translate(72.283 -2155.93)" fill="#124f98"/>
    <path id="Path_11" data-name="Path 11" d="M21.562,2166.853l-1.736.649c-2.49.105-1.408-1.514-1.231-2.623.815-5.073,2.029-10.114,2.418-15.214.41-5.356-2.539-8.816-7.646-10.43-11.211-3.538-26.615,1.635-32.348,11.217a4.129,4.129,0,0,1-1.569,1.442c.554-3.471,2.684-6.043,4.818-8.567,6.814-8.051,22.573-11.866,32.354-7.918,6.765,2.728,10.346,8.106,9.781,15.375-.327,4.2-1.264,8.356-1.874,12.542A3.925,3.925,0,0,1,21.562,2166.853Z" transform="translate(67.213 -2117.61)" fill="#124f98"/>
    <path id="Path_12" data-name="Path 12" d="M-33.629,2131.484c-2.506-.288-4.99-.771-7.508-.821-6.1-.111-9.315,2.695-10.042,8.672-1,8.273.915,16.124,3.992,23.681,1.863,4.586,4.336,8.916,6.543,13.391-3.255,2.334-4.73,2.04-6.654-1.375-5.711-10.163-9.121-20.915-8.317-32.714a23.385,23.385,0,0,1,.981-5.689c2.251-6.864,7.763-9.7,15.364-7.962,2.018.466,3.953,1.264,5.933,1.907Z" transform="translate(82.887 -2115.083)" fill="#124f98"/>
    <path id="Path_13" data-name="Path 13" d="M-47.7,2104.57a5.439,5.439,0,0,1,5.761,5.645,5.563,5.563,0,0,1-5.9,5.545,5.48,5.48,0,0,1-5.711-5.689C-53.528,2106.727-51.166,2104.553-47.7,2104.57Z" transform="translate(81.916 -2104.57)" fill="#124f98"/>
    <path id="Path_14" data-name="Path 14" d="M43.369,2120.344c-.05-3.471,2.185-5.794,5.572-5.794a5.64,5.64,0,0,1,5.894,5.639,6.149,6.149,0,0,1-5.877,5.844A5.711,5.711,0,0,1,43.369,2120.344Z" transform="translate(38.736 -2109.016)" fill="#124f98"/>
    <path id="Path_15" data-name="Path 15" d="M2.36,2201.115l-.5-.637a5.126,5.126,0,0,0-5.656-2.456,4.852,4.852,0,0,0-4.319,4.38c-.255,2.323-1.924,1.946-3.421,2.218-.133-4.768,1.808-7.613,5.744-8.7,3.4-.937,7.053.382,8.572,3.265C3.02,2199.63,2.521,2200.461,2.36,2201.115Z" transform="translate(63.2 -2145.136)" fill="#124f98"/>
  </g>
</svg>
