<?xml version="1.0" encoding="utf-8"?>
<!-- Generator: Adobe Illustrator 25.3.1, SVG Export Plug-In . SVG Version: 6.00 Build 0)  -->
<svg version="1.1" id="momo_icon_horizontal_pink" xmlns="http://www.w3.org/2000/svg" xmlns:xlink="http://www.w3.org/1999/xlink"
	 x="0px" y="0px" viewBox="0 0 75.1 24.7" style="enable-background:new 0 0 75.1 24.7;" xml:space="preserve">
<style type="text/css">
	.st0{fill-rule:evenodd;clip-rule:evenodd;fill:#A50064;}
</style>
<path id="Path_78" class="st0" d="M14.8,5.2c-1.2,0-2.3,0.4-3.2,1.1C9.2,4.5,5.9,5,4.1,7.3C3.4,8.3,3,9.4,3,10.6v8.9h4.1v-9
	c0-0.7,0.6-1.2,1.2-1.2c0.6,0,1.2,0.5,1.2,1.2v9h4.1v-9c0-0.7,0.5-1.2,1.2-1.2c0.7,0,1.2,0.5,1.2,1.2c0,0,0,0,0,0.1v9h4.1v-8.9
	C20.2,7.6,17.8,5.2,14.8,5.2z"/>
<path id="Path_79" class="st0" d="M50.4,5.2c-1.2,0-2.3,0.4-3.2,1.1c-2.4-1.8-5.7-1.3-7.5,1.1c-0.7,0.9-1.1,2.1-1.1,3.2v8.9h4.1v-9
	c0-0.7,0.6-1.2,1.2-1.2c0.6,0,1.2,0.5,1.2,1.2v9h4.1v-9c0-0.7,0.5-1.2,1.2-1.2c0.7,0,1.2,0.5,1.2,1.2c0,0,0,0,0,0.1v9h4.1v-8.9
	C55.7,7.6,53.3,5.2,50.4,5.2z"/>
<path id="Path_80" class="st0" d="M29.4,5.2c-3.9,0-7.1,3.2-7.1,7.1s3.2,7.1,7.1,7.1s7.1-3.2,7.1-7.1l0,0
	C36.5,8.4,33.3,5.2,29.4,5.2C29.4,5.2,29.4,5.2,29.4,5.2z M29.4,15.4c-1.7,0-3-1.4-3-3s1.4-3,3-3s3,1.4,3,3
	C32.4,14,31,15.4,29.4,15.4C29.4,15.4,29.4,15.4,29.4,15.4z"/>
<path id="Path_81" class="st0" d="M64.9,5.2c-3.9,0-7.1,3.2-7.1,7.1s3.2,7.1,7.1,7.1c3.9,0,7.1-3.2,7.1-7.1
	C72.1,8.4,68.9,5.2,64.9,5.2C64.9,5.2,64.9,5.2,64.9,5.2z M64.9,15.4c-1.7,0-3-1.4-3-3s1.4-3,3-3c1.7,0,3,1.4,3,3c0,0,0,0,0,0
	C68,14,66.6,15.4,64.9,15.4C64.9,15.4,64.9,15.4,64.9,15.4z"/>
</svg>
