<?xml version="1.0" encoding="utf-8"?>
<!-- Generator: Adobe Illustrator 25.3.1, SVG Export Plug-In . SVG Version: 6.00 Build 0)  -->
<svg version="1.1" id="Layer_1" xmlns="http://www.w3.org/2000/svg" xmlns:xlink="http://www.w3.org/1999/xlink" x="0px" y="0px"
	 viewBox="0 0 826.1 128.6" style="enable-background:new 0 0 826.1 128.6;" xml:space="preserve">
<style type="text/css">
	.st0{fill-rule:evenodd;clip-rule:evenodd;fill:url(#SVGID_1_);}
	.st1{fill-rule:evenodd;clip-rule:evenodd;fill:url(#SVGID_2_);}
	.st2{fill-rule:evenodd;clip-rule:evenodd;fill:#0F2A10;}
</style>
<g>
	<linearGradient id="SVGID_1_" gradientUnits="userSpaceOnUse" x1="114.3543" y1="79.4147" x2="26.9291" y2="18.1989">
		<stop  offset="0" style="stop-color:#154A25"/>
		<stop  offset="0.4" style="stop-color:#1A5E2B"/>
		<stop  offset="1" style="stop-color:#7AC11F"/>
	</linearGradient>
	<path class="st0" d="M57.6,12.3c-7.7,1.6-10.5,5.1-10.2,10.1c0.4,7.1,8.1,20.5,11.9,26.5c6.5,10.5,14.1,19.9,22.7,28.7
		c6.9,6.8,11.2,8.3,18.6-1.8c6.3-8.3,12.1-16.6,17.1-26.9c2.2-4.5,4.2-9.5,6-15c1.9-6.5,1.2-12.2-5.1-16.4c6.1,3,8.8,8.5,9.1,14.5
		c0.4,5.8-1.4,12.2-2.7,16.9c-3.3,11.7-7.6,23.4-13,34c-4.1,8-9.2,17.6-14.4,24.7c-11.4,15.7-22.4,10.7-35.3,0
		c-8.2-6.7-16-15.3-22.7-24.6c-6.8-9.4-14.3-23.4-18.7-34.1c-6.1-14.7-1.4-22.2,6.1-27C35.2,16.7,47.6,13.7,57.6,12.3z"/>
	<linearGradient id="SVGID_2_" gradientUnits="userSpaceOnUse" x1="59.5192" y1="11.8202" x2="111.2535" y2="48.0449">
		<stop  offset="0" style="stop-color:#154A25"/>
		<stop  offset="0.3" style="stop-color:#1A5E2B"/>
		<stop  offset="1" style="stop-color:#7AC11F"/>
	</linearGradient>
	<path class="st1" d="M57.3,45.8c11.9-1.8,42.9-3.7,53.7,1.9c3.6,1.9,3.7,4.4,3.4,7.3c1.1-2,2.2-4,3.2-6.1c2.2-4.5,4.2-9.5,6-15
		c1.9-6.5,1.2-12.2-5.1-16.4l0,0c-2.4-1.2-5.1-2.1-7.5-2.8c-7.2-2.1-15.1-2.9-23.1-3.5C84.6,11,81.2,11,77.7,11
		c-6.3,0-13.2,0.4-20.1,1.3c-7.7,1.6-10.5,5.1-10.2,10.1C47.6,28.4,53.3,39.1,57.3,45.8z"/>
</g>
<path class="st2" d="M590.8,104.4c8.2-1,15.2-5.2,17.6-17.7c1.5-8,1.3-20.8-0.9-28.3c-1-3.5-2.6-6.4-4.9-8.4
	c-3.9-3.2-8.2-3.8-11.9-3.9c-6.4-0.2-9.8,0.9-14.4,4.6c-0.9,0.7-1.7,1-1.7-0.2l-0.1-26.6l-14.7,0.2l0.1,76.2
	C566,104.6,583.4,105.3,590.8,104.4L590.8,104.4z M195.9,103c3.1,0,2.5,0.3,4.4-2.3c12.8-17.6,24.9-55,24.7-75.9
	c-6-0.3-12,0.7-18,2.2c-5.8,34.2-10.9,43.3-20.1,60.8l0,0l0,0c-9.2-17.5-14.3-26.5-20.1-60.8c-6-1.4-12.1-2.4-18-2.2
	c-0.2,20.9,11.9,58.3,24.7,75.9c1.9,2.6,1.3,2.3,4.4,2.3H195.9L195.9,103z M619.1,49l1.4,13.4c5.8-0.6,10.6-2.1,16.7-2.5
	c9.2-0.3,15.1-0.6,14.8,6.1c-6.9,0-13.8,0-21,0.1c-8.7,0.1-15.9,4.2-14.9,21.8c1.2,21.2,26.3,19.6,37.8,11.1v4.8h13.3
	c-0.4-21.6,1.2-44.3-2.7-50.5C657.2,41.5,632.8,45.8,619.1,49L619.1,49z M304.7,101.2c-0.5-4.4-1-8.7-1.5-13.1
	c-6,1.1-16.4,2.6-22.5,2.4c-7-0.2-9.6-3.6-9.6-13.6c2.2,2.5,5.4,4.3,9.3,4.4c9.2,0.1,17.8,0.3,26.8-0.1c0.4-16.7,1.8-31.2-14.8-34.8
	c-6.8-1.4-15.8-1.4-22.2,0.5c-7.1,2.1-10.5,5.4-12.5,12.4c-3.8,13.1-2.7,32.5,5.7,40C273.1,107.9,292.6,104.8,304.7,101.2
	L304.7,101.2z M277.9,59.3h7.4c3.7,0,6.7,3,6.7,6.7v3h-20.7v-3C271.2,62.3,274.2,59.3,277.9,59.3L277.9,59.3z M748.7,103.6l0.5-24.5
	c0-1.5,1.4,0.5,1.7,1.1c4.9,8.1,9.3,14.3,16.5,21.5c2,2,2.4,1.9,6.1,1.9h15.4c-11.3-9.3-17.5-16.8-23.5-28.1
	c-1.2-2.6-1.1-2.3,0.6-4.7c2.2-2.6,5.1-6.1,8.2-9.6l13.2-15.5c0.1-0.1,0.1-0.2,0.2-0.4h-14c-2.6,0-2.5-0.4-4.3,1.6
	c-5.3,5.8-11.4,12.5-16.4,17.9c-0.6,0.7-1.3,1.2-1.9,1.6c-2,1.5-1.7,1.1-1.7-1l-0.1-41.6l-14.9,0.1l-0.2,79.7H748.7L748.7,103.6z
	 M402.7,101.7l-1.3-13c-6.7,0.6-13.8,2.4-21,1.6c-7.1-0.8-8-4.6-8.1-10.4c0-3.5-0.1-7.5,0.1-10.9c0.3-4.8,1.7-7.8,8-8.5
	c7.2-0.8,14.3,1,21,1.6l1.3-13c-25.6-6.1-41.6-3-45.2,16.8c-0.7,4.2-0.4,17.8,0.6,21.7C362.7,105,378.3,107.5,402.7,101.7
	L402.7,101.7z M322.3,46.2c-3.1,0-6.2,0-9.4,0c0,4.6-0.1,9.2-0.1,13.8c3.2,0,6.2,0,9.4,0.1c0,4.7,0,9.6,0,14.3c0,4.9-0.1,9.5,0,13.5
	c0,5.8,1.1,10.8,4.5,13.5c1.4,1.1,3.4,1.7,5.8,2c5.8,0.7,13.1,0.3,18-1.3c-0.2-3.9-0.3-7.9-0.5-11.8c-5.8,0.6-12.8,1.8-12.8-1.1
	c0-10,0-18.9,0-29c4.6,0,9,0,13.6-0.1c0-4.6,0-9.2,0-13.7c-4.5,0-9.1,0-13.6-0.1c0-4.6,0-9.1,0-13.7c-5,0-10,0-15,0
	C322.3,37.1,322.3,41.6,322.3,46.2L322.3,46.2z M230.8,103.6l14.6,0.3l0.5-57.5l-15.2,0.1L230.8,103.6L230.8,103.6z M429.3,45.4
	h13.1c10.2,0,18.6,8.4,18.6,18.6v22c0,10.2-8.3,18.6-18.6,18.6h-13.1c-10.2,0-18.6-8.4-18.6-18.6V64
	C410.8,53.7,419.1,45.4,429.3,45.4L429.3,45.4z M432.2,59.3c-3.7,0-6.7,3-6.7,6.7v17.9c0,3.7,3,6.7,6.7,6.7h7.4c3.7,0,6.7-3,6.7-6.7
	V66c0-3.7-3-6.7-6.7-6.7H432.2L432.2,59.3z M485.3,103.6c0.1-14.6,0.3-29.3,0.4-43.9c3.6,0,7.3,0,10.9,0c2.9,0,5.8,1.9,5.8,5v2
	l0,36.9h14.7l0.4-44c4,0,8,0,12,0c3.5,0,5.8,2,5.8,5.4l0.1,38.6H550l0.5-41.5c0.1-8.8-4.8-16.1-14.8-16c-3.2,0-6.4,0.1-9.5,0.1
	c-4.8,0-7.3,0.9-10.3,4c-2.2,2.3-1.1,2.3-3.1,0.2c-3-3.2-6.5-4.2-11-4.2c-2.2,0-4.5,0-6.7,0c-4.1,0.2-6.7,1.5-9.8,4.6
	c-2.4,2.5-2.1,3.3-2.1-0.6c0-1.2,0-2.4,0-3.6c0,0,0,0,0,0l0,0c-4.1,0-8.4,0-12.5,0.1c0,19,0,38.1,0.1,57.1H485.3L485.3,103.6z
	 M691.6,103.6c0.1-14.6,0.3-29.3,0.4-43.9c3.7,0,7.4,0,11.1,0c3.3,0,5.9,2,5.9,5.3c0,12.9,0,25.8,0,38.6c5,0,9.9,0,14.9,0
	c0.1-12.8,0.2-25.6,0.4-38.4C724.3,55,720.3,46,708.3,46c-2.3,0-4.5,0-6.8,0c-4,0.2-6.6,1.4-9.6,4.3c-2.6,2.5-2.5,3.8-2.5-0.1v-3.8
	l-12.7,0c0,19,0.1,38.2,0.1,57.2C681.7,103.6,686.6,103.6,691.6,103.6L691.6,103.6z M636.1,78.8c5.4,0,10.8,0,16.2,0
	c0,2.8,0,5.7,0,8.5c0,3.5-10.3,3.7-16.8,3.5c-4.8-0.1-4.2,0-4.4-4.2c-0.1-1.6,0-3.2,0-4.7C631.2,78.6,631.8,78.8,636.1,78.8
	L636.1,78.8z M593.9,68.6v7.9v7.9c0,3.7-3,6.7-6.7,6.7c-2.5,0-5,0-7.5,0c-5.2,0-5.3,0.1-5.3-7.4v-7.2v-9.8c0-7.5,0-7.4,5.3-7.4
	c2.5,0,5,0,7.5,0c3.7,0,6.7,3,6.7,6.7V68.6z"/>
</svg>
