<svg xmlns="http://www.w3.org/2000/svg" width="42" height="42" viewBox="0 0 42 42">
  <path id="icons8-zalo" d="M9,4A5.015,5.015,0,0,0,4,9V41a5.015,5.015,0,0,0,5,5H41a5.015,5.015,0,0,0,5-5V9a5.015,5.015,0,0,0-5-5ZM9,6h6.58A19.505,19.505,0,0,0,10,19.5a19.387,19.387,0,0,0,5.91,13.84,3.828,3.828,0,0,1-.24,2.43,3.374,3.374,0,0,1-1.99,2.1A1,1,0,0,0,13,38.881a1.011,1.011,0,0,0,.8.92,9.266,9.266,0,0,0,6.229-.971c1.35-.62,2.241-1.041,3.611-.48A24.319,24.319,0,0,0,32.5,40,24,24,0,0,0,44,37.113V41a2.985,2.985,0,0,1-3,3H9a2.985,2.985,0,0,1-3-3V9A2.985,2.985,0,0,1,9,6Zm24,9a1,1,0,0,1,1,1v9a1,1,0,0,1-2,0V16A1,1,0,0,1,33,15ZM18,16h5a1,1,0,0,1,.85,1.529L19.8,24H23a1,1,0,0,1,0,2H18a1,1,0,0,1-.85-1.529L21.2,18H18a1,1,0,0,1,0-2Zm9.5,3a3.493,3.493,0,0,1,1.69.449A.982.982,0,0,1,30,19a1,1,0,0,1,1,1v5a1,1,0,0,1-1,1,.982.982,0,0,1-.81-.449A3.495,3.495,0,1,1,27.5,19Zm11,0A3.5,3.5,0,1,1,35,22.5,3.5,3.5,0,0,1,38.5,19Zm-11,2a1.508,1.508,0,0,0-.3.031A1.491,1.491,0,0,0,26.031,22.2a1.479,1.479,0,0,0,0,.605,1.479,1.479,0,0,0,.086.281A1.5,1.5,0,1,0,27.5,21Zm11,0a1.509,1.509,0,0,0-.3.031,1.478,1.478,0,0,0-.281.086,1.518,1.518,0,0,0-.8.8,1.479,1.479,0,0,0-.086.281,1.479,1.479,0,0,0,0,.605,1.479,1.479,0,0,0,.086.281,1.5,1.5,0,0,0,.139.256,1.483,1.483,0,0,0,.941.629,1.484,1.484,0,0,0,.605,0A1.5,1.5,0,0,0,38.5,21Z" transform="translate(-4 -4)"/>
</svg>
